<svg width="529" height="529" viewBox="0 0 529 529" fill="none" xmlns="http://www.w3.org/2000/svg">
<path d="M529 264.5C529 332.081 503.132 397.098 456.705 446.207C410.279 495.316 346.815 524.791 279.341 528.583C211.867 532.375 145.501 510.196 93.864 466.598C42.2273 423 9.23738 361.29 1.66546 294.135C-5.90646 226.98 12.514 159.474 53.146 105.472C93.7781 51.4709 153.539 15.0704 220.164 3.74236C286.788 -7.58569 355.222 7.018 411.418 44.556C467.614 82.094 507.311 139.719 522.359 205.603L515.526 207.163C500.876 143.025 462.232 86.9276 407.525 50.3844C352.818 13.8411 286.198 -0.375612 221.339 10.6523C156.48 21.6801 98.3021 57.116 58.7468 109.687C19.1915 162.257 1.25912 227.975 8.63039 293.35C16.0017 358.726 48.1174 418.8 98.3857 461.243C148.654 503.685 213.262 525.277 278.948 521.585C344.634 517.894 406.416 489.199 451.612 441.392C496.808 393.584 521.991 330.29 521.991 264.5H529Z" fill="#DABC92"/>
<path d="M488 264.5C488 321.605 466.142 376.544 426.912 418.041C387.682 459.537 334.056 484.444 277.041 487.648C220.026 490.852 163.947 472.111 120.314 435.271C76.6817 398.431 48.8055 346.287 42.4073 289.542C36.0091 232.796 51.5742 175.754 85.9079 130.123C120.242 84.4924 170.739 53.7344 227.036 44.1623C283.333 34.5902 341.159 46.9301 388.644 78.6494C436.13 110.369 469.673 159.061 482.389 214.732L476.615 216.051C464.236 161.855 431.582 114.453 385.355 83.5743C339.127 52.6956 282.834 40.6826 228.029 50.0011C173.224 59.3195 124.064 89.2625 90.6405 133.684C57.2166 178.106 42.064 233.636 48.2926 288.878C54.5213 344.12 81.6587 394.882 124.135 430.746C166.611 466.609 221.204 484.854 276.708 481.735C332.212 478.615 384.417 454.369 422.608 413.972C460.798 373.575 482.077 320.092 482.077 264.5H488Z" fill="#DABC92"/>
<path d="M448 268.5C448 316.151 429.76 361.995 397.025 396.622C364.289 431.249 319.541 452.032 271.964 454.706C224.388 457.38 177.593 441.741 141.184 411C104.775 380.259 81.5133 336.747 76.1743 289.396C70.8353 242.045 83.8237 194.446 112.473 156.369C141.123 118.292 183.261 92.6262 230.238 84.6388C277.215 76.6513 325.468 86.9484 365.092 113.417C404.717 139.885 432.707 180.516 443.318 226.971L438.499 228.072C428.17 182.848 400.922 143.293 362.347 117.526C323.773 91.7594 276.799 81.7352 231.067 89.511C185.334 97.2867 144.313 122.273 116.423 159.34C88.532 196.408 75.8878 242.746 81.0853 288.842C86.2828 334.939 108.928 377.297 144.372 407.224C179.817 437.15 225.372 452.375 271.687 449.772C318.003 447.169 361.565 426.936 393.433 393.227C425.302 359.518 443.058 314.889 443.058 268.5H448Z" fill="#DABC92"/>
<path d="M408 268.5C408 305.165 393.966 340.439 368.778 367.082C343.59 393.725 309.159 409.717 272.552 411.774C235.945 413.831 199.939 401.798 171.924 378.145C143.91 354.491 126.012 321.012 121.904 284.578C117.796 248.144 127.789 211.52 149.833 182.222C171.878 152.925 204.3 133.176 240.446 127.03C276.592 120.885 313.719 128.807 344.208 149.173C374.696 169.539 396.233 200.802 404.397 236.546L400.69 237.393C392.742 202.596 371.776 172.161 342.096 152.335C312.415 132.509 276.272 124.796 241.084 130.779C205.895 136.762 174.332 155.987 152.872 184.509C131.412 213.03 121.683 248.684 125.682 284.152C129.681 319.62 147.105 352.213 174.378 375.239C201.65 398.266 236.702 409.98 272.338 407.977C307.975 405.975 341.494 390.407 366.014 364.47C390.535 338.532 404.197 304.193 404.197 268.5H408Z" fill="#DABC92"/>
</svg>
