<svg width="200" height="238" viewBox="0 0 200 238" fill="none" xmlns="http://www.w3.org/2000/svg">
<path d="M1 184.216V79.7162C1 79.7162 5.34598 74.2915 8 70.7162C14.5529 61.8888 17.0899 56.1479 23.5 47.2162C26.9155 42.4572 32.5 35.2162 32.5 35.2162C34.6249 32.4647 36.1149 31.1373 38 28.2162C41.5591 22.7011 41.5019 18.5553 44.5 12.7162C46.4581 8.90268 46.4681 5.64582 50 3.21624C54.6654 0.00697637 59.5168 0.526945 64.5 3.21624C68.6597 5.4611 69.9949 8.43579 72 12.7162C75.7273 20.6733 73.3704 26.537 72 35.2162C70.5555 44.365 65.7384 48.5373 64.5 57.7162C63.6123 64.2955 60.54 69.3877 64.5 74.7162C68.4048 79.9705 80.5 79.7162 80.5 79.7162C91.7057 81.1723 97.8206 76.362 109 74.7162C122.803 72.6843 130.561 71.2954 144.5 70.7162C152.694 70.3758 155.083 68.5778 163 70.7162C170.086 72.6301 179.105 72.9715 182 79.7162C183.849 84.0225 186.251 89.7439 182 91.7162C176 94.5 171.17 94.2173 164.5 95.5C151.5 98 135 99 123.5 103.5C118.255 105.552 112.312 107.093 112 112.716C111.675 118.565 118.93 118.782 124 121.716C135.355 128.287 142.648 128.079 155 132.5C168.405 137.298 177.564 138.314 188 148C194.555 154.084 201.056 155.811 198 164.216C195.066 172.284 181 168.575 177.5 168C164 165.784 152.5 157.5 136 155.216C131.358 154.574 126.812 151.467 124 155.216C121.891 158.028 126.073 161.674 128.5 164.216C134.5 170.5 140.525 173.089 149.5 181C156.297 186.991 160 188 165.5 196.216C168.541 200.76 169.366 206.35 165.5 210.216C161.634 214.082 155.5 213 151.5 210.216C136.342 199.667 113 182.5 113 182.5C111 180.934 107.808 176.412 104 177.716C99.7511 179.171 102 189.216 102 189.216C104 201.716 110.799 210.894 117.5 223.716C120 228.5 117.5 233.716 117.5 233.716C114.362 237.953 108.67 236.163 104 233.716C95 229 79.9079 198.746 58 191C42.9044 185.662 27.3546 193.236 11.5 191C2.58704 189.743 1 184.216 1 184.216Z" fill="#FFE3B8" stroke="#DABC92" stroke-width="2"/>
<path d="M46 98.5C46 98.5 43.5604 113.054 37.5 119.5C32.7054 124.6 22 128.5 22 128.5" stroke="#DABC92" stroke-width="4" stroke-linecap="round"/>
</svg>
